<svg xmlns="http://www.w3.org/2000/svg" viewBox="0 0 24 24" width="24" height="24" fill="none">
  <defs>
    <mask id="paper-mask-small">
      <rect x="0" y="0" width="24" height="24" fill="white" />
      <path d="M 7 10 V 3.5 C 7 2.7 7.7 2 8.5 2 H 14 L 17 5 V 10 Z" fill="black" stroke="black" stroke-width="0.9" stroke-linejoin="round" />
    </mask>

    <mask id="dog-ear-cutout">
      <rect x="0" y="0" width="24" height="24" fill="white" />
      <path d="M 14 2 V 4.2 C 14 4.6 14.4 5 14.8 5 H 17" fill="none" stroke="black" stroke-width="0.8" stroke-linecap="round" stroke-linejoin="round" />
    </mask>
  </defs>

  <path d="M 4 10
           V 6 C 4 5.2 4.7 4.5 5.5 4.5
           H 8.5 C 9.1 4.5 9.5 4.8 9.7 5.3
           L 10.7 7
           H 18.5 C 19.3 7 20 7.7 20 8.5
           V 19.5 C 20 20.3 19.3 21 18.5 21
           H 5.5 C 4.7 21 4 20.3 4 19.5
           Z"
        stroke="#000000" stroke-width="0.8" stroke-linejoin="round" fill="none" mask="url(#paper-mask-small)" />

  <path d="M 7 10 V 3.5 C 7 2.7 7.7 2 8.5 2 H 14 L 17 5 V 10 Z"
        fill="#000000" stroke="#000000" stroke-width="0.8" stroke-linejoin="round" mask="url(#dog-ear-cutout)" />

  <path d="M 4 10 H 20"
        stroke="#000000" stroke-width="0.8" stroke-linecap="round" fill="none" />

  <path d="M 12 11.5 C 12 14.5, 13.5 15.5, 16.5 15.5 C 13.5 15.5, 12 16.5, 12 19.5 C 12 16.5, 10.5 15.5, 7.5 15.5 C 10.5 15.5, 12 14.5, 12 11.5 Z" fill="#000000" />
  <circle cx="16" cy="12" r="0.7" fill="#000000" />
  <circle cx="8.5" cy="18" r="0.4" fill="#000000" />
</svg>
